<svg width="204" height="40" viewBox="0 0 204 40" fill="none" xmlns="http://www.w3.org/2000/svg">
<path d="M194.899 19.0081C196.182 19.0081 197.36 19.2131 198.431 19.6231C199.516 20.0332 200.448 20.635 201.229 21.4287C202.009 22.2091 202.618 23.1747 203.054 24.3255C203.491 25.4631 203.709 26.766 203.709 28.2342C203.709 28.6046 203.689 28.9155 203.649 29.1668C203.623 29.4049 203.563 29.5967 203.471 29.7422C203.391 29.8745 203.279 29.9737 203.134 30.0398C202.988 30.0927 202.803 30.1192 202.578 30.1192H189.999C190.144 32.2091 190.706 33.7435 191.685 34.7223C192.664 35.7012 193.96 36.1906 195.574 36.1906C196.368 36.1906 197.049 36.098 197.618 35.9128C198.2 35.7276 198.702 35.5226 199.126 35.2977C199.562 35.0729 199.939 34.8678 200.257 34.6827C200.587 34.4975 200.905 34.4049 201.209 34.4049C201.407 34.4049 201.579 34.4446 201.725 34.5239C201.87 34.6033 201.996 34.7157 202.102 34.8612L203.53 36.6469C202.988 37.2819 202.38 37.8176 201.705 38.2541C201.03 38.6774 200.323 39.0213 199.582 39.2858C198.854 39.5372 198.107 39.7157 197.34 39.8216C196.586 39.9274 195.852 39.9803 195.138 39.9803C193.722 39.9803 192.406 39.7488 191.189 39.2858C189.972 38.8096 188.914 38.1152 188.014 37.2025C187.115 36.2766 186.407 35.139 185.891 33.7898C185.376 32.4274 185.118 30.8533 185.118 29.0676C185.118 27.6787 185.343 26.3758 185.792 25.1588C186.242 23.9287 186.884 22.8639 187.717 21.9644C188.563 21.0517 189.589 20.3308 190.792 19.8017C192.009 19.2726 193.378 19.0081 194.899 19.0081ZM194.999 22.52C193.57 22.52 192.452 22.9234 191.645 23.7303C190.839 24.5372 190.323 25.6813 190.098 27.1628H199.304C199.304 26.5279 199.218 25.9327 199.046 25.3771C198.874 24.8083 198.61 24.3123 198.253 23.889C197.895 23.4657 197.446 23.135 196.903 22.8969C196.361 22.6456 195.726 22.52 194.999 22.52Z" fill="url(#paint0_linear_32_380)"/>
<path d="M181.248 23.2938C181.115 23.5054 180.977 23.6575 180.831 23.7501C180.686 23.8295 180.5 23.8692 180.275 23.8692C180.037 23.8692 179.779 23.803 179.502 23.6708C179.237 23.5385 178.926 23.393 178.569 23.2342C178.212 23.0623 177.802 22.9102 177.339 22.7779C176.889 22.6456 176.354 22.5795 175.732 22.5795C174.766 22.5795 174.006 22.7845 173.45 23.1946C172.895 23.6046 172.617 24.1403 172.617 24.8017C172.617 25.2382 172.756 25.6086 173.033 25.9128C173.324 26.2038 173.701 26.4618 174.164 26.6866C174.641 26.9115 175.176 27.1165 175.772 27.3017C176.367 27.4737 176.975 27.6655 177.597 27.8771C178.219 28.0887 178.827 28.3335 179.422 28.6112C180.018 28.8758 180.547 29.2197 181.01 29.643C181.486 30.053 181.863 30.5491 182.141 31.1311C182.432 31.7131 182.577 32.4141 182.577 33.2342C182.577 34.2131 182.398 35.1192 182.041 35.9525C181.684 36.7726 181.162 37.4869 180.474 38.0954C179.786 38.6906 178.933 39.1602 177.914 39.5041C176.909 39.8348 175.752 40.0001 174.442 40.0001C173.741 40.0001 173.053 39.934 172.379 39.8017C171.717 39.6827 171.076 39.5107 170.454 39.2858C169.846 39.061 169.277 38.7964 168.748 38.4922C168.232 38.188 167.775 37.8573 167.379 37.5001L168.51 35.635C168.655 35.4102 168.827 35.2382 169.025 35.1192C169.224 35.0001 169.475 34.9406 169.779 34.9406C170.084 34.9406 170.368 35.0266 170.633 35.1985C170.91 35.3705 171.228 35.5557 171.585 35.7541C171.942 35.9525 172.359 36.1377 172.835 36.3096C173.324 36.4816 173.939 36.5676 174.68 36.5676C175.262 36.5676 175.758 36.5014 176.168 36.3692C176.592 36.2237 176.936 36.0385 177.2 35.8136C177.478 35.5887 177.676 35.3308 177.795 35.0398C177.928 34.7356 177.994 34.4247 177.994 34.1073C177.994 33.6311 177.848 33.2409 177.557 32.9366C177.279 32.6324 176.902 32.3678 176.426 32.143C175.963 31.9181 175.428 31.7197 174.819 31.5477C174.224 31.3626 173.609 31.1641 172.974 30.9525C172.352 30.7409 171.737 30.4962 171.129 30.2184C170.533 29.9274 169.998 29.5636 169.522 29.1271C169.059 28.6906 168.682 28.1549 168.391 27.52C168.113 26.885 167.974 26.1178 167.974 25.2184C167.974 24.385 168.139 23.5914 168.47 22.8374C168.801 22.0835 169.283 21.4287 169.918 20.8731C170.566 20.3044 171.367 19.8546 172.319 19.5239C173.285 19.18 174.396 19.0081 175.652 19.0081C177.055 19.0081 178.331 19.2395 179.482 19.7025C180.633 20.1655 181.592 20.7739 182.359 21.5279L181.248 23.2938Z" fill="url(#paint1_linear_32_380)"/>
<path d="M163.609 19.3253V39.6824H158.709V19.3253H163.609ZM164.344 13.3927C164.344 13.816 164.258 14.2128 164.086 14.5832C163.914 14.9536 163.682 15.2777 163.391 15.5554C163.113 15.8332 162.783 16.0581 162.399 16.23C162.016 16.3888 161.605 16.4681 161.169 16.4681C160.746 16.4681 160.342 16.3888 159.959 16.23C159.588 16.0581 159.264 15.8332 158.986 15.5554C158.709 15.2777 158.484 14.9536 158.312 14.5832C158.153 14.2128 158.074 13.816 158.074 13.3927C158.074 12.9562 158.153 12.5462 158.312 12.1626C158.484 11.779 158.709 11.4483 158.986 11.1705C159.264 10.8927 159.588 10.6745 159.959 10.5157C160.342 10.3438 160.746 10.2578 161.169 10.2578C161.605 10.2578 162.016 10.3438 162.399 10.5157C162.783 10.6745 163.113 10.8927 163.391 11.1705C163.682 11.4483 163.914 11.779 164.086 12.1626C164.258 12.5462 164.344 12.9562 164.344 13.3927Z" fill="url(#paint2_linear_32_380)"/>
<path d="M114.468 10.9919H118.952C119.415 10.9919 119.798 11.1044 120.102 11.3292C120.42 11.5409 120.632 11.8319 120.737 12.2023L125.618 29.365C125.737 29.7882 125.843 30.2512 125.936 30.7539C126.042 31.2433 126.141 31.7658 126.233 32.3213C126.339 31.7658 126.452 31.2433 126.571 30.7539C126.703 30.2512 126.842 29.7882 126.987 29.365L132.622 12.2023C132.728 11.898 132.933 11.6203 133.237 11.3689C133.555 11.1176 133.938 10.9919 134.388 10.9919H135.956C136.419 10.9919 136.802 11.1044 137.106 11.3292C137.411 11.5409 137.622 11.8319 137.741 12.2023L143.337 29.365C143.628 30.2115 143.879 31.1507 144.091 32.1824C144.183 31.6666 144.276 31.1705 144.368 30.6943C144.474 30.2181 144.58 29.775 144.686 29.365L149.567 12.2023C149.659 11.8716 149.864 11.5872 150.182 11.3491C150.499 11.111 150.883 10.9919 151.333 10.9919H155.519L146.61 39.6824H141.789L135.519 20.0792C135.44 19.8279 135.354 19.5568 135.261 19.2658C135.182 18.9747 135.103 18.6639 135.023 18.3332C134.944 18.6639 134.858 18.9747 134.765 19.2658C134.686 19.5568 134.606 19.8279 134.527 20.0792L128.198 39.6824H123.376L114.468 10.9919Z" fill="url(#paint3_linear_32_380)"/>
<path d="M111.294 10.1985V39.6826H106.393V10.1985H111.294Z" fill="url(#paint4_linear_32_380)"/>
<path d="M93.2904 19.0081C94.5735 19.0081 95.7508 19.2131 96.8222 19.6231C97.9068 20.0332 98.8394 20.635 99.6198 21.4287C100.4 22.2091 101.009 23.1747 101.445 24.3255C101.882 25.4631 102.1 26.766 102.1 28.2342C102.1 28.6046 102.08 28.9155 102.04 29.1668C102.014 29.4049 101.954 29.5967 101.862 29.7422C101.783 29.8745 101.67 29.9737 101.525 30.0398C101.379 30.0927 101.194 30.1192 100.969 30.1192H88.3897C88.5352 32.2091 89.0973 33.7435 90.0762 34.7223C91.055 35.7012 92.3513 36.1906 93.965 36.1906C94.7587 36.1906 95.4399 36.098 96.0087 35.9128C96.5907 35.7276 97.0934 35.5226 97.5166 35.2977C97.9531 35.0729 98.3301 34.8678 98.6476 34.6827C98.9783 34.4975 99.2957 34.4049 99.6 34.4049C99.7984 34.4049 99.9703 34.4446 100.116 34.5239C100.261 34.6033 100.387 34.7157 100.493 34.8612L101.921 36.6469C101.379 37.2819 100.771 37.8176 100.096 38.2541C99.4214 38.6774 98.7137 39.0213 97.973 39.2858C97.2455 39.5372 96.4981 39.7157 95.7309 39.8216C94.9769 39.9274 94.2428 39.9803 93.5285 39.9803C92.1132 39.9803 90.7971 39.7488 89.5801 39.2858C88.3632 38.8096 87.305 38.1152 86.4055 37.2025C85.5061 36.2766 84.7984 35.139 84.2825 33.7898C83.7666 32.4274 83.5087 30.8533 83.5087 29.0676C83.5087 27.6787 83.7336 26.3758 84.1833 25.1588C84.633 23.9287 85.2746 22.8639 86.1079 21.9644C86.9545 21.0517 87.9796 20.3308 89.1833 19.8017C90.4002 19.2726 91.7693 19.0081 93.2904 19.0081ZM93.3896 22.52C91.9611 22.52 90.8434 22.9234 90.0365 23.7303C89.2296 24.5372 88.7137 25.6813 88.4889 27.1628H97.6952C97.6952 26.5279 97.6092 25.9327 97.4373 25.3771C97.2653 24.8083 97.0008 24.3123 96.6436 23.889C96.2865 23.4657 95.8367 23.135 95.2944 22.8969C94.7521 22.6456 94.1172 22.52 93.3896 22.52Z" fill="url(#paint5_linear_32_380)"/>
<path d="M66.8079 19.3254V32.2619C66.8079 33.5053 67.0923 34.4709 67.6611 35.1588C68.2431 35.8334 69.1095 36.1707 70.2603 36.1707C71.1069 36.1707 71.9005 35.9855 72.6413 35.6151C73.382 35.2315 74.0831 34.709 74.7444 34.0477V19.3254H79.6452V39.6826H76.6492C76.0143 39.6826 75.5976 39.385 75.3992 38.7897L75.0619 37.1627C74.6386 37.586 74.2021 37.9762 73.7524 38.3334C73.3026 38.6773 72.8198 38.9749 72.304 39.2262C71.8013 39.4643 71.2524 39.6495 70.6571 39.7818C70.0751 39.9273 69.4468 40 68.7722 40C67.6611 40 66.6757 39.8149 65.8159 39.4445C64.9693 39.0609 64.255 38.5252 63.673 37.8373C63.091 37.1495 62.6479 36.336 62.3436 35.3969C62.0526 34.4445 61.9071 33.3995 61.9071 32.2619V19.3254H66.8079Z" fill="url(#paint6_linear_32_380)"/>
<path d="M59.6155 10.9919V15.238H46.8972V23.73H57.6313V27.9959H46.8972V39.6824H41.5202V10.9919H59.6155Z" fill="url(#paint7_linear_32_380)"/>
<path fill-rule="evenodd" clip-rule="evenodd" d="M34.4413 17.1297C33.8031 15.0261 32.775 13.0841 31.4356 11.3863C28.8948 13.2614 25.5662 10.2321 27.2207 7.55147C25.5012 6.43274 23.5651 5.60944 21.4832 5.14067C22.1036 9.82637 29.336 14.9907 29.336 23.4482C29.336 37.7554 5.85831 37.6294 5.85831 23.4482C5.85831 18.0416 8.61773 14.4431 11.4402 10.7738C12.878 8.90065 14.8437 6.92908 15.4483 4.84326C13.2463 5.10522 11.1585 5.78079 9.27952 6.7912C10.6819 9.56835 7.16416 12.3613 4.75533 10.2538C3.27222 11.8295 2.07667 13.677 1.25928 15.7155C4.11718 16.9504 3.24268 21.3269 0.0341838 21.2639C-0.115506 23.3438 0.235084 25.6975 0.890963 27.675C3.95567 26.7827 5.95679 30.7613 3.54206 32.7034C4.84791 34.4346 6.47874 35.9197 8.34199 37.068C10.1068 34.4681 14.2173 36.1541 13.6146 39.2287C15.7418 39.7191 17.9616 39.8117 20.1163 39.5084C19.7775 36.3944 24.0201 35.057 25.5544 37.8007C27.5142 36.812 29.2632 35.4687 30.7187 33.8576C28.4418 31.6752 30.8684 27.9487 33.7834 29.0753C34.6106 27.1609 35.1621 24.8407 35.1917 22.7549C32.0324 22.554 31.4573 18.1421 34.4413 17.1297Z" fill="#454547"/>
<path fill-rule="evenodd" clip-rule="evenodd" d="M17.4849 34.9465C14.2764 34.917 11.2767 33.9066 9.02938 32.0926C6.42162 29.989 5.0429 27.0011 5.0429 23.4519C5.0429 17.7558 7.96579 13.9564 10.7922 10.2811C11.1388 9.82813 11.5209 9.36527 11.8893 8.91817C12.7086 7.92352 13.5457 6.90523 14.1149 5.88892C12.7913 6.16466 11.5131 6.59994 10.2958 7.19083C10.544 8.13427 10.4002 9.11316 9.87434 9.96994C9.17513 11.1064 7.93428 11.8135 6.63828 11.8135C6.01982 11.8135 5.42106 11.652 4.87548 11.3428C3.81583 12.5659 2.95117 13.9151 2.29529 15.3706C3.61887 16.3022 3.98719 17.8602 3.72326 19.1345C3.45539 20.4266 2.46665 21.7305 0.818088 22.0239C0.792483 23.5327 1.01702 25.195 1.45821 26.751C1.56063 26.7431 1.66108 26.7392 1.76153 26.7392C3.31752 26.7392 4.67064 27.7279 5.21031 29.2583C5.6515 30.511 5.425 31.7991 4.62928 32.776C5.64954 34.0189 6.84115 35.1021 8.18245 36.0062C8.86197 35.3483 9.74632 34.984 10.7016 34.984C11.8479 34.984 12.9627 35.5059 13.6816 36.3804C14.1996 37.0127 14.4753 37.7769 14.4852 38.5883C15.468 38.7715 16.4725 38.8661 17.481 38.8739C17.5263 37.5602 17.542 36.2524 17.4849 34.9465Z" fill="url(#paint8_radial_32_380)"/>
<path fill-rule="evenodd" clip-rule="evenodd" d="M31.7055 20.352C31.5341 19.0521 32.0246 17.5197 33.4427 16.6925C32.9128 15.1818 32.1683 13.7617 31.2229 12.4559C30.7502 12.6725 30.248 12.7848 29.7378 12.7848C29.7378 12.7848 29.7378 12.7848 29.7359 12.7848C28.3965 12.7848 27.0986 12.0048 26.425 10.7994C25.905 9.86979 25.8242 8.83181 26.1728 7.86276C25.0581 7.20294 23.8704 6.67706 22.6216 6.29102C23.1278 7.63626 24.1048 9.09574 25.1959 10.7246C27.4039 14.0237 30.1534 18.1303 30.1534 23.4522C30.1534 31.3503 23.6675 34.9508 17.6385 34.9508H17.6366C17.5873 34.9508 17.5381 34.9488 17.4888 34.9488C17.546 36.2566 17.5302 37.5644 17.4869 38.8723C17.5322 38.8723 17.5775 38.8742 17.6228 38.8742C18.1821 38.8742 18.7455 38.8467 19.3048 38.7915C19.3816 38.0352 19.685 37.3379 20.1892 36.7727C20.9002 35.9809 21.9756 35.5062 23.0648 35.5062C24.154 35.5062 25.1191 35.9513 25.8085 36.751C27.2167 35.9651 28.499 34.9882 29.6295 33.832C28.9559 32.8394 28.8141 31.6024 29.2769 30.4502C29.8521 29.0203 31.2308 28.0571 32.708 28.0571C32.905 28.0571 33.1019 28.0729 33.2989 28.1064C33.876 26.5957 34.2443 24.955 34.3467 23.4443C32.7513 23.013 31.8768 21.6559 31.7055 20.352Z" fill="url(#paint9_radial_32_380)"/>
<path d="M33.8957 23.1469C32.5839 22.5777 31.9655 21.3191 31.8355 20.3363C31.6917 19.2431 32.0442 17.6635 33.5077 16.8087C33.5963 16.7555 33.6002 16.7496 33.5648 16.6492C33.031 15.1306 32.2786 13.6928 31.3273 12.379C31.2702 12.2983 31.2544 12.2963 31.1658 12.3357C30.7069 12.5465 30.2243 12.6509 29.7339 12.6509C28.4418 12.6509 27.1892 11.8985 26.5392 10.7325C26.0448 9.84613 25.9582 8.84163 26.2969 7.9041C26.3304 7.81349 26.3225 7.7938 26.2398 7.74456C25.1211 7.08277 23.9157 6.54901 22.661 6.15902C22.4247 6.08615 22.4168 6.11569 22.4976 6.33235C22.4976 6.33432 22.4995 6.33629 22.4995 6.33826C22.6473 6.38947 22.7851 6.44068 22.9053 6.51749C23.9905 6.87793 25.0324 7.3467 26.0113 7.91788C25.6903 8.89875 25.7947 9.9387 26.3088 10.8605C27.004 12.1092 28.3493 12.9148 29.7359 12.9148C30.2283 12.9148 30.7128 12.8143 31.1776 12.6193C32.0639 13.8602 32.771 15.2094 33.2812 16.6354C31.7843 17.567 31.4238 19.2195 31.5735 20.3697C31.7252 21.5239 32.5051 23.0307 34.2049 23.5408C34.0946 24.9707 33.744 26.5307 33.2103 27.9586C33.0428 27.935 32.8735 27.9252 32.706 27.9252C31.1757 27.9252 29.7477 28.9198 29.1529 30.401C28.69 31.5512 28.8042 32.7881 29.4601 33.8143C28.3808 34.8995 27.1636 35.8312 25.836 36.5816C25.123 35.7997 24.1422 35.3722 23.0628 35.3722C21.9362 35.3722 20.8254 35.8627 20.0887 36.682C19.5904 37.2375 19.2792 37.9209 19.1827 38.6674C18.4658 38.7344 17.7449 38.7521 17.026 38.7265C17.026 38.8151 17.024 38.9018 17.0221 38.9904C17.221 38.9963 17.4219 39.0042 17.6208 39.0042C18.1821 39.0042 18.7533 38.9766 19.3147 38.9215C19.4191 38.9116 19.423 38.9077 19.4329 38.8033C19.5057 38.0706 19.8012 37.399 20.2857 36.8593C20.9711 36.0931 22.0111 35.6362 23.0628 35.6362C24.1008 35.6362 25.0403 36.0616 25.7061 36.8357C25.775 36.9145 25.7809 36.9144 25.8715 36.8652C27.2876 36.0754 28.5836 35.0867 29.7241 33.9246C29.7989 33.8478 29.7989 33.8438 29.7398 33.7572C29.08 32.7881 28.9579 31.6004 29.3991 30.4994C29.9545 29.1187 31.284 28.1891 32.708 28.1891C32.8971 28.1891 33.3836 28.2541 33.3836 28.2541C34.006 27.1353 34.4964 24.6635 34.4866 23.3438C34.4846 23.3438 34.0473 23.2119 33.8957 23.1469Z" fill="url(#paint10_radial_32_380)"/>
<path d="M11.7888 8.83369C11.4205 9.28079 11.0384 9.74365 10.6898 10.2006C7.84959 13.8916 4.9129 17.7087 4.9129 23.4501C4.9129 27.0407 6.30738 30.0641 8.94863 32.1952C11.1073 33.9363 13.9475 34.9467 17.0063 35.0669C17.0024 34.9783 16.9964 34.8896 16.9905 34.801C13.9987 34.6769 11.2235 33.6882 9.11408 31.9884C6.53783 29.9085 5.17683 26.958 5.17683 23.4501C5.17683 17.7974 8.08594 14.0177 10.9005 10.3601C12.0212 8.90263 13.331 7.56526 14.2331 5.95215C14.2331 5.84186 14.2784 5.7611 14.2055 5.74731C14.044 5.91276 13.8943 6.08806 13.7486 6.24759C13.201 7.11619 12.486 7.98676 11.7888 8.83369Z" fill="url(#paint11_radial_32_380)"/>
<path d="M14.6172 38.4722C14.5837 37.6667 14.2981 36.9143 13.784 36.2899C13.0395 35.3858 11.8873 34.8442 10.7016 34.8442C9.75814 34.8442 8.86393 35.1948 8.16866 35.831C6.90614 34.9663 5.77362 33.9382 4.79866 32.7682C5.5806 31.7539 5.77559 30.4618 5.3344 29.2092C4.75336 27.5586 3.24661 26.5128 1.55472 26.6093C1.14898 25.1399 0.934295 23.5584 0.946112 22.1304C2.70891 21.764 3.61099 20.3105 3.84931 19.1582C4.08173 18.0316 3.85128 16.3673 2.4568 15.3234C3.08708 13.9526 3.9084 12.6684 4.90305 11.5063C5.44667 11.7959 6.0277 11.9436 6.63631 11.9436C7.97958 11.9436 9.26377 11.2128 9.98661 10.037C10.5066 9.19203 10.6681 8.21117 10.4495 7.26182C11.5347 6.74381 12.6771 6.34792 13.849 6.08202C13.8155 6.13717 13.7801 6.19232 13.7446 6.24944C13.8904 6.0899 14.0401 5.91461 14.2016 5.74916C14.1779 5.74522 14.1425 5.74719 14.0873 5.75901C12.7559 6.03672 11.4618 6.47791 10.2368 7.07077C10.1422 7.11804 10.1402 7.12197 10.1678 7.22439C10.5204 8.55388 10.0024 9.91094 8.98802 10.8032C7.88504 11.7722 6.22072 11.9554 4.94048 11.2266C4.86169 11.1813 4.83215 11.1892 4.77503 11.2542C3.70947 12.4852 2.83497 13.8502 2.17318 15.3155C2.13379 15.4042 2.13772 15.4219 2.21848 15.4771C3.58736 16.4402 3.81386 18.0336 3.59326 19.1051C3.36676 20.2002 2.49816 21.5868 0.794452 21.8921C0.695972 21.9098 0.688094 21.9196 0.686124 22.0201C0.660519 23.5347 0.890963 25.2266 1.33216 26.7846C1.3617 26.885 1.36564 26.889 1.47003 26.8811C3.0792 26.7511 4.53277 27.728 5.08623 29.2978C5.50969 30.4973 5.30485 31.7342 4.52686 32.6875C4.46383 32.7663 4.46186 32.7761 4.52686 32.8549C5.55302 34.1036 6.75842 35.2007 8.10957 36.1087C8.1923 36.1658 8.20215 36.1658 8.27502 36.0949C8.9309 35.4607 9.79162 35.1101 10.7016 35.1101C11.8085 35.1101 12.8859 35.6143 13.5792 36.4573C14.0755 37.062 14.3434 37.7966 14.3532 38.5825C14.3552 38.6889 14.3572 38.6908 14.4616 38.7105C15.3006 38.8661 16.1574 38.9567 17.0181 38.9883C17.0201 38.8996 17.022 38.813 17.022 38.7243C16.2145 38.6987 15.4089 38.614 14.6172 38.4722Z" fill="url(#paint12_radial_32_380)"/>
<path d="M17.6366 35.0808C23.7286 35.0789 30.2834 31.439 30.2834 23.4503C30.2834 18.089 27.522 13.9627 25.3023 10.6459C24.2682 9.10171 23.3681 7.75646 22.8462 6.49985C22.8659 6.50576 22.8856 6.51364 22.9053 6.52152C22.7851 6.4447 22.6473 6.39349 22.4995 6.34229C23.0116 7.69934 23.9708 9.13322 25.0837 10.7956C27.2837 14.0809 30.0195 18.1678 30.0195 23.4503C30.0195 31.2578 23.6005 34.8149 17.6346 34.8169C17.4199 34.8169 17.2033 34.811 16.9905 34.8031C16.9964 34.8917 17.0024 34.9804 17.0063 35.069C17.2131 35.0769 17.4239 35.0808 17.6366 35.0808Z" fill="url(#paint13_radial_32_380)"/>
<path fill-rule="evenodd" clip-rule="evenodd" d="M18.3968 0C17.735 9.89137 7.48521 13.9586 7.48521 23.5644C7.48521 35.707 27.7151 35.6834 27.7151 23.5644C27.7151 15.3019 19.1453 9.58805 18.3968 0Z" fill="url(#paint14_radial_32_380)"/>
<path fill-rule="evenodd" clip-rule="evenodd" d="M17.219 31.9923C13.5792 31.9923 9.49421 29.028 9.49421 23.9267C9.49421 17.2635 16.5434 11.1184 18.1881 4.64819C18.9838 7.74048 20.9967 10.5629 22.342 13.604C24.5519 18.595 26.6377 23.3102 25.2688 26.4321C23.7167 29.9655 20.5063 31.9923 17.219 31.9923Z" fill="url(#paint15_radial_32_380)"/>
<path opacity="0.6" fill-rule="evenodd" clip-rule="evenodd" d="M23.8664 16.8561C23.3957 15.7058 18.9838 7.74267 18.1881 4.65039C15.9132 12.1802 9.6242 17.2677 9.6242 22.9205C14.365 23.342 19.1768 17.8999 23.8664 16.8561Z" fill="url(#paint16_linear_32_380)"/>
<path d="M23.7424 27.5764C23.4981 27.604 23.2618 27.5114 23.1948 27.2081C23.1377 26.9442 23.3839 26.5877 23.5828 26.3001C25.3496 23.7593 24.6641 20.6434 23.6931 17.951C23.0038 16.0385 22.3459 13.8798 21.7826 12.2292C22.8619 14.8961 24.1619 17.3246 25.0403 20.0289C25.7179 22.1127 25.7947 24.3758 24.8119 26.3868C24.5932 26.8398 24.3687 27.5075 23.7424 27.5764Z" fill="url(#paint17_radial_32_380)"/>
<defs>
<linearGradient id="paint0_linear_32_380" x1="38.6234" y1="4.94578" x2="200.264" y2="62.0001" gradientUnits="userSpaceOnUse">
<stop stop-color="#58595B"/>
<stop offset="1" stop-color="#7E7E7E"/>
</linearGradient>
<linearGradient id="paint1_linear_32_380" x1="38.6234" y1="4.94578" x2="200.264" y2="62.0001" gradientUnits="userSpaceOnUse">
<stop stop-color="#58595B"/>
<stop offset="1" stop-color="#7E7E7E"/>
</linearGradient>
<linearGradient id="paint2_linear_32_380" x1="38.6234" y1="4.94553" x2="200.264" y2="61.9998" gradientUnits="userSpaceOnUse">
<stop stop-color="#58595B"/>
<stop offset="1" stop-color="#7E7E7E"/>
</linearGradient>
<linearGradient id="paint3_linear_32_380" x1="38.6234" y1="4.94555" x2="200.264" y2="61.9999" gradientUnits="userSpaceOnUse">
<stop stop-color="#58595B"/>
<stop offset="1" stop-color="#7E7E7E"/>
</linearGradient>
<linearGradient id="paint4_linear_32_380" x1="38.6234" y1="4.94574" x2="200.264" y2="62" gradientUnits="userSpaceOnUse">
<stop stop-color="#58595B"/>
<stop offset="1" stop-color="#7E7E7E"/>
</linearGradient>
<linearGradient id="paint5_linear_32_380" x1="38.6234" y1="4.94578" x2="200.264" y2="62.0001" gradientUnits="userSpaceOnUse">
<stop stop-color="#58595B"/>
<stop offset="1" stop-color="#7E7E7E"/>
</linearGradient>
<linearGradient id="paint6_linear_32_380" x1="38.6234" y1="4.9457" x2="200.264" y2="62" gradientUnits="userSpaceOnUse">
<stop stop-color="#58595B"/>
<stop offset="1" stop-color="#7E7E7E"/>
</linearGradient>
<linearGradient id="paint7_linear_32_380" x1="38.6234" y1="4.94554" x2="200.264" y2="61.9999" gradientUnits="userSpaceOnUse">
<stop stop-color="#58595B"/>
<stop offset="1" stop-color="#7E7E7E"/>
</linearGradient>
<radialGradient id="paint8_radial_32_380" cx="0" cy="0" r="1" gradientUnits="userSpaceOnUse" gradientTransform="translate(7.53715 16.4062) scale(13.1041 13.1041)">
<stop stop-color="#CCCECF"/>
<stop offset="0.48" stop-color="#808184"/>
<stop offset="1" stop-color="#58595B"/>
</radialGradient>
<radialGradient id="paint9_radial_32_380" cx="0" cy="0" r="1" gradientUnits="userSpaceOnUse" gradientTransform="translate(29.5864 11.0902) scale(14.8922 14.8922)">
<stop stop-color="#CCCECF"/>
<stop offset="0.48" stop-color="#808184"/>
<stop offset="1" stop-color="#58595B"/>
</radialGradient>
<radialGradient id="paint10_radial_32_380" cx="0" cy="0" r="1" gradientUnits="userSpaceOnUse" gradientTransform="translate(33.3742 14.9329) scale(11.2454 11.2454)">
<stop stop-color="white"/>
<stop offset="0.34" stop-color="#BBBDBF"/>
<stop offset="0.635" stop-color="#808184"/>
<stop offset="1" stop-color="#58595B"/>
</radialGradient>
<radialGradient id="paint11_radial_32_380" cx="0" cy="0" r="1" gradientUnits="userSpaceOnUse" gradientTransform="translate(6.13579 17.9948) scale(13.7358)">
<stop stop-color="white"/>
<stop offset="0.34" stop-color="#BBBDBF"/>
<stop offset="0.635" stop-color="#808184"/>
<stop offset="1" stop-color="#58595B"/>
</radialGradient>
<radialGradient id="paint12_radial_32_380" cx="0" cy="0" r="1" gradientUnits="userSpaceOnUse" gradientTransform="translate(4.64039 29.3948) scale(11.0181 11.0181)">
<stop stop-color="white"/>
<stop offset="0.34" stop-color="#BBBDBF"/>
<stop offset="0.635" stop-color="#808184"/>
<stop offset="1" stop-color="#58595B"/>
</radialGradient>
<radialGradient id="paint13_radial_32_380" cx="0" cy="0" r="1" gradientUnits="userSpaceOnUse" gradientTransform="translate(29.7745 26.2176) scale(13.6106)">
<stop stop-color="white"/>
<stop offset="0.34" stop-color="#BBBDBF"/>
<stop offset="0.635" stop-color="#808184"/>
<stop offset="1" stop-color="#58595B"/>
</radialGradient>
<radialGradient id="paint14_radial_32_380" cx="0" cy="0" r="1" gradientUnits="userSpaceOnUse" gradientTransform="translate(16.7877 14.7571) scale(11.4944 11.4944)">
<stop stop-color="#F9EC31"/>
<stop offset="0.48" stop-color="#F6921E"/>
<stop offset="0.74" stop-color="#E1701E"/>
<stop offset="1" stop-color="#C64A1B"/>
</radialGradient>
<radialGradient id="paint15_radial_32_380" cx="0" cy="0" r="1" gradientUnits="userSpaceOnUse" gradientTransform="translate(18.8428 13.2686) scale(12.827)">
<stop stop-color="#F9EC31"/>
<stop offset="0.48" stop-color="#F6921E"/>
<stop offset="1" stop-color="#CE4E1D"/>
</radialGradient>
<linearGradient id="paint16_linear_32_380" x1="16.9109" y1="21.0783" x2="15.3226" y2="9.67915" gradientUnits="userSpaceOnUse">
<stop stop-color="#F9EC31"/>
<stop offset="0.48" stop-color="#F6921E"/>
<stop offset="1" stop-color="#CE4E1D"/>
</linearGradient>
<radialGradient id="paint17_radial_32_380" cx="0" cy="0" r="1" gradientUnits="userSpaceOnUse" gradientTransform="translate(24.7755 19.5316) scale(6.4387 6.23724)">
<stop stop-color="#F9EC31"/>
<stop offset="0.48" stop-color="#F6921E"/>
<stop offset="1" stop-color="#CE4E1D"/>
</radialGradient>
</defs>
</svg>
